<svg width="35" height="35" viewBox="0 0 35 35" fill="none" xmlns="http://www.w3.org/2000/svg">
<path d="M10.2083 16.0417L16.0417 2.91673C17.202 2.91673 18.3148 3.37766 19.1353 4.19813C19.9557 5.0186 20.4167 6.1314 20.4167 7.29172V13.125H28.6708C29.0936 13.1203 29.5124 13.2074 29.8981 13.3806C30.2839 13.5537 30.6274 13.8086 30.9048 14.1277C31.1822 14.4467 31.387 14.8223 31.5049 15.2283C31.6228 15.6344 31.651 16.0612 31.5875 16.4792L29.575 29.6042C29.4695 30.2997 29.1163 30.9336 28.5803 31.3892C28.0443 31.8448 27.3617 32.0913 26.6583 32.0833H10.2083M10.2083 16.0417V32.0833M10.2083 16.0417H5.83334C5.05979 16.0417 4.31792 16.349 3.77094 16.896C3.22396 17.443 2.91667 18.1848 2.91667 18.9584V29.1667C2.91667 29.9402 3.22396 30.6821 3.77094 31.2291C4.31792 31.7761 5.05979 32.0833 5.83334 32.0833H10.2083" stroke="white" stroke-width="2" stroke-linecap="round" stroke-linejoin="round"/>
</svg>
