<svg height="512" viewBox="0 0 512 512" width="512" xmlns="http://www.w3.org/2000/svg"><g id="Layer_2" data-name="Layer 2"><g id="at_the_rate" data-name="at the rate"><path d="m467 512h-422a45.05 45.05 0 0 1 -45-45v-422a45.05 45.05 0 0 1 45-45h422a45.05 45.05 0 0 1 45 45v422a45.05 45.05 0 0 1 -45 45z" fill="#f44336"/><g fill="#fff"><path d="m338.14 436a97.86 97.86 0 1 1 97.86-97.86 98 98 0 0 1 -97.86 97.86zm0-185.71a87.86 87.86 0 1 0 87.86 87.85 88 88 0 0 0 -87.86-87.85z"/><path d="m338.14 374.1a40.38 40.38 0 1 1 40.38-40.38 40.42 40.42 0 0 1 -40.38 40.38zm0-70.75a30.38 30.38 0 1 0 30.38 30.37 30.4 30.4 0 0 0 -30.38-30.37z"/><path d="m408.39 369.08a42.89 42.89 0 0 1 -17.73-3.59c-10.34-4.68-17.77-13.65-22.07-26.66a5 5 0 1 1 9.5-3.14c3.38 10.22 9 17.18 16.64 20.66 14.25 6.48 31.49-.63 31.66-.7a5 5 0 0 1 3.91 9.2 61.3 61.3 0 0 1 -21.91 4.23z"/><path d="m373.52 342.35a5 5 0 0 1 -5-5v-38.91a5 5 0 0 1 10 0v38.91a5 5 0 0 1 -5 5z"/><path d="m227.43 226c-39.84 0-77.38-7.46-105.7-21-29.49-14.09-45.73-33.27-45.73-54s16.24-39.91 45.73-54c28.32-13.53 65.86-21 105.7-21s77.38 7.46 105.7 21c29.49 14.1 45.73 33.28 45.73 54s-16.24 39.91-45.73 54c-28.32 13.54-65.86 21-105.7 21zm0-140c-38.38 0-74.43 7.11-101.43 20-25.82 12.35-40 28.32-40 45s14.22 32.64 40 45c27 12.9 63 20 101.39 20s74.39-7.11 101.38-20c25.83-12.35 40.05-28.32 40.05-45s-14.22-32.64-40.05-45c-26.95-12.89-62.96-20-101.34-20z"/><path d="m227.43 296c-39.84 0-77.38-7.46-105.7-21-29.49-14.09-45.73-33.27-45.73-54a5 5 0 0 1 10 0c0 16.66 14.22 32.64 40 45 27 12.9 63 20 101.39 20a295.86 295.86 0 0 0 31.17-1.62 5 5 0 0 1 1 9.95 307.74 307.74 0 0 1 -32.13 1.67z"/><path d="m227.43 366c-39.84 0-77.38-7.46-105.7-21-29.49-14.09-45.73-33.27-45.73-54a5 5 0 0 1 10 0c0 16.66 14.22 32.64 40 45 27 12.9 63 20 101.39 20 6.69 0 13.49-.22 20.19-.67a5 5 0 1 1 .66 10c-6.88.44-13.9.67-20.81.67z"/><path d="m227.43 436c-39.84 0-77.38-7.46-105.7-21-29.49-14.09-45.73-33.27-45.73-54v-201.43a5 5 0 0 1 10 0v201.43c0 16.66 14.22 32.64 40 45 27 12.9 63 20 101.39 20 24.49 0 48.66-3 69.89-8.65a5 5 0 1 1 2.57 9.67c-22.01 5.87-47.07 8.98-72.42 8.98z"/><path d="m373.86 257.41a5 5 0 0 1 -5-5v-101.41a5 5 0 0 1 10 0v101.41a5 5 0 0 1 -5 5z"/><path d="m109.57 228.86a5.43 5.43 0 0 1 -1-.1 4.36 4.36 0 0 1 -.93-.29 4.74 4.74 0 0 1 -.86-.46 4.57 4.57 0 0 1 -.76-.62 5.19 5.19 0 0 1 -.63-.76 5.46 5.46 0 0 1 -.46-.86 5.08 5.08 0 0 1 -.28-.94 4.57 4.57 0 0 1 -.1-1 5 5 0 0 1 1.47-3.54 4.57 4.57 0 0 1 .76-.62 4.74 4.74 0 0 1 .86-.46 4.88 4.88 0 0 1 3.82 0 4.51 4.51 0 0 1 .87.46 5 5 0 0 1 2.22 4.16 4.57 4.57 0 0 1 -.1 1 5.08 5.08 0 0 1 -.28.94 5.46 5.46 0 0 1 -.46.86 4.57 4.57 0 0 1 -.62.76 5 5 0 0 1 -.76.62 4.51 4.51 0 0 1 -.87.46 4.36 4.36 0 0 1 -.93.29 5.34 5.34 0 0 1 -.96.1z"/><path d="m138.14 243.14a5 5 0 0 1 -4.15-2.22 4.74 4.74 0 0 1 -.46-.86 4.63 4.63 0 0 1 -.29-.94 4.8 4.8 0 0 1 0-2 4.45 4.45 0 0 1 .29-.94 4.74 4.74 0 0 1 .46-.86 4.86 4.86 0 0 1 1.38-1.38 4.74 4.74 0 0 1 .86-.46 5.11 5.11 0 0 1 .94-.29 4.92 4.92 0 0 1 2 0 5.36 5.36 0 0 1 .94.29 4.74 4.74 0 0 1 .86.46 5 5 0 0 1 .76.62 4.57 4.57 0 0 1 .62.76 4.74 4.74 0 0 1 .46.86 5.08 5.08 0 0 1 .28.94 4.8 4.8 0 0 1 0 2 5.32 5.32 0 0 1 -.28.94 4.74 4.74 0 0 1 -.46.86 4.86 4.86 0 0 1 -1.38 1.38 4.74 4.74 0 0 1 -.86.46 4.75 4.75 0 0 1 -1.92.38z"/><path d="m109.57 300.28a5.5 5.5 0 0 1 -1-.09 5.26 5.26 0 0 1 -.93-.29 4.74 4.74 0 0 1 -.86-.46 4.57 4.57 0 0 1 -.76-.62 5.78 5.78 0 0 1 -.63-.76 5.46 5.46 0 0 1 -.46-.86 5.08 5.08 0 0 1 -.28-.94 4.8 4.8 0 0 1 0-1.95 5.32 5.32 0 0 1 .28-.94 5.46 5.46 0 0 1 .46-.86 5.78 5.78 0 0 1 .63-.76 4.57 4.57 0 0 1 .76-.62 4.74 4.74 0 0 1 .86-.46 5.22 5.22 0 0 1 .93-.28 5 5 0 0 1 5.14 2.12 5.46 5.46 0 0 1 .46.86 5.32 5.32 0 0 1 .28.94 4.8 4.8 0 0 1 0 1.95 5.08 5.08 0 0 1 -.28.94 5.46 5.46 0 0 1 -.46.86 5 5 0 0 1 -4.16 2.22z"/><path d="m138.14 314.57a5 5 0 0 1 -4.15-2.22 5.19 5.19 0 0 1 -.46-.87 5 5 0 0 1 -.29-.93 5.34 5.34 0 0 1 -.1-1 5.52 5.52 0 0 1 .1-1 4.54 4.54 0 0 1 .29-.93 4.74 4.74 0 0 1 .46-.86 4.57 4.57 0 0 1 .62-.76 4.63 4.63 0 0 1 .76-.63 5.46 5.46 0 0 1 .86-.46 5.08 5.08 0 0 1 .94-.28 4.92 4.92 0 0 1 2 0 5.32 5.32 0 0 1 .94.28 5.46 5.46 0 0 1 .86.46 5.09 5.09 0 0 1 .76.63 4.57 4.57 0 0 1 .62.76 4.74 4.74 0 0 1 .46.86 5.26 5.26 0 0 1 .29.93 5.5 5.5 0 0 1 .09 1 5.33 5.33 0 0 1 -.09 1 5 5 0 0 1 -.29.93 6 6 0 0 1 -.46.87 5 5 0 0 1 -4.16 2.22z"/><path d="m109.57 371.71a5.5 5.5 0 0 1 -1-.09 5.26 5.26 0 0 1 -.93-.29 4.74 4.74 0 0 1 -.86-.46 4.57 4.57 0 0 1 -.76-.62 5.78 5.78 0 0 1 -.63-.76 5.46 5.46 0 0 1 -.46-.86 5.32 5.32 0 0 1 -.28-.94 4.8 4.8 0 0 1 0-1.95 5.08 5.08 0 0 1 .28-.94 5.46 5.46 0 0 1 .46-.86 5.19 5.19 0 0 1 .63-.76 5 5 0 0 1 8.53 3.53 4.59 4.59 0 0 1 -.1 1 5.32 5.32 0 0 1 -.28.94 5.46 5.46 0 0 1 -.46.86 5 5 0 0 1 -4.16 2.22z"/><path d="m138.14 386a5 5 0 0 1 -5-5 5.43 5.43 0 0 1 .1-1 4.36 4.36 0 0 1 .29-.93 4.74 4.74 0 0 1 .46-.86 4.57 4.57 0 0 1 .62-.76 4.17 4.17 0 0 1 .76-.63 5.46 5.46 0 0 1 .86-.46 5.08 5.08 0 0 1 .94-.28 4.92 4.92 0 0 1 2 0 5.32 5.32 0 0 1 .94.28 5.46 5.46 0 0 1 .86.46 5.07 5.07 0 0 1 1.38 1.39 4.74 4.74 0 0 1 .46.86 5 5 0 0 1 .29.93 5.41 5.41 0 0 1 .09 1 5 5 0 0 1 -2.22 4.16 5.46 5.46 0 0 1 -.86.46 5.32 5.32 0 0 1 -.94.28 4.59 4.59 0 0 1 -1.03.1z"/></g></g></g></svg>