<svg clip-rule="evenodd" fill-rule="evenodd" height="6.827in" image-rendering="optimizeQuality" shape-rendering="geometricPrecision" text-rendering="geometricPrecision" viewBox="0 0 6.82666 6.82666" width="6.827in" xmlns="http://www.w3.org/2000/svg"><g id="Layer_x0020_1"><circle cx="3.413" cy="3.413" fill="#52a610" r="3.413"/><circle cx="3.413" cy="3.413" fill="#64d70a" r="3.217"/><path d="m2.5459 2.35533-.872764-.00093701 1.08437-1.09102.00016929.886988-.211776.204965zm.863602 1.54695c-.0006811.0675079-.00109449.135012-.00109449.202465 0 .0397992-.0238898.0886063-.0449921.121244-.0385315.0595906-.0927087.108402-.152811.145575-.222453.137579-.535295.128272-.783484.0898661-.0943858-.0146063-.182346-.0485748-.262173-.100961-.209843-.137717-.334835-.382429-.410626-.614646-.0512717-.157087-.0850197-.322035-.106402-.485787-.0153031-.117193-.0256535-.239476-.0256535-.35778 0-.140268.0403268-.273941.122902-.38763.0324055-.044622.0815276-.0985197.12824-.129433l.0200748-.0132835h.754185l.119953-.126606-.00000787-.530122c0-.0181142-.00040158-.0362244-.00033858-.0543386.00015748-.0471299.00346457-.0937087.019563-.138449.0592874-.164748.249791-.189055.401508-.189055.165898 0 .320469.0527756.44813.159004.0385315.032063.0825709.0767244.115516.122031l.440059.00000394c.183736 0 .59178.131193.687484.296142.0082874.0142835.0192441.0284016.0289488.0417953.0172283.0237795.0336024.0476693.0487205.072874.0508622.0847874.0859606.178791.113031.273579.0493189.172669.0760197.358012.0943937.536295.0316299.306937.0397598.61989.0397598.928272 0 .482327-.0760551 1.08376-.412406 1.45931-.0827323.092374-.182701.171677-.295831.223465-.0354764.0162402-.115276.0472165-.155902.0472165h-.434252c-.15922 0-.322484-.0404173-.449126-.140575-.170839-.13511-.229906-.34037-.229906-.551102 0-.248768.144949-.414189.369634-.49876.101055-.0380354.237311-.0646142.346587-.0639016l.0794724.00051969v.484543l-.0910512-.0127402c-.0428071-.0059252-.0895984-.00829528-.132669-.00829528-.0108543 0-.0237717.00114567-.033752.0057874-.0304528.0141575-.0327323.0765984-.0327323.103543 0 .0622953.0413268.131547.0881929.176638h.39135c.0506693 0 .0827126-.0220787.105248-.0664961.0121929-.0240354.0223858-.0587126.0245748-.0862874v-.364634c0-.0835591-.0460945-.156665-.109748-.20787-.0945157-.0760354-.222252-.103559-.341177-.103559-.184992 0-.342894-.10663-.463756-.238197-.00584252-.00635827-.0117283-.0129173-.0176378-.0196575zm.721925-.632472c.00428346.0006378.00849213.00126378.0126024.0018622.0550866.00801575.110083.0170591.164976.026315.0277677.00468504.0555236.00944882.0832677.0142756-.011563-.0143268-.023252-.0281732-.0349173-.0413307-.0245354-.0276772-.100654-.107031-.140465-.107031-.0375866 0-.066878.0539331-.0854646.105909z" fill="#52a610"/><path d="m2.51357 2.2753-.648339-.00069685.812319-.817295.00012598.659161-.164106.158831zm2.29678-.324634c-.069126-.119118-.430657-.256291-.618291-.256291l-.483492-.00000394s-.155236-.281035-.520213-.281035c-.365319-.00000787-.340736.162787-.340736.301846l.00000787.562-.165543.174724h-.76452s-.215291.142469-.215291.45035c0 .307949.0955315 1.38093.737091 1.48012.759035.117559.889059-.235169.889059-.27763 0-.178701.00452362-.449291.00452362-.449291s.222287.424685.557961.424685c.335626 0 .530921.192787.530921.391425v.367445s-.0125079.229969-.209819.229969h-.421287s-.138252-.107693-.138252-.256634c.00000394-.148878.0676142-.189327.14648-.189327.0789488 0 .143724.00906299.143724.00906299v-.313098s-.635701-.00415354-.635701.482665c0 .486717.332406.611681.599035.611681h.434252s.784142-.100815.784142-1.64999c0-1.5493-.244862-1.6934-.314051-1.81267zm-.779744 1.38874s.0381732-.255504.186295-.255504c.148201 0 .351602.341169.351602.341169 0-.00000394-.464122-.0856654-.537898-.0856654z" fill="#fffffe"/></g></svg>