<svg id="Capa_1" enable-background="new 0 0 512 512" height="512" viewBox="0 0 512 512" width="512" xmlns="http://www.w3.org/2000/svg"><g><circle cx="256" cy="256" r="256"/><g id="XMLID_1_"><g id="XMLID_2_"><g id="XMLID_3_" fill="#fff"><path id="XMLID_8_" d="m284.128 183.013c-7.728 4.048-10.606 10.886-10.606 29.776 0 0 3.913-3.785 9.717-5.888 4.232-1.533 7.845-3.866 9.936-5.397 6.53-4.783 7.54-10.945 7.54-21.314-.001 0-10.649-.288-16.587 2.823z"/><path id="XMLID_7_" d="m238.295 187.438c-6.303 5.557-8.144 14.41-8.144 14.41l-20.866 80.841-17.354-66.162c-1.69-7.034-4.738-15.73-9.558-21.61-6.14-7.491-18.624-7.961-19.954-7.961s-13.813.47-19.954 7.961c-4.82 5.88-7.868 14.576-9.558 21.61l-17.354 66.162-20.866-80.841s-1.841-8.853-8.144-14.41c-10.219-9.01-25.543-7.082-25.543-7.082l39.957 151.08s13.183.949 19.778-2.413c8.663-4.417 12.787-7.823 18.031-28.379 4.674-18.327 17.742-72.158 18.962-75.989.604-1.894 1.368-6.421 4.692-6.421 3.4 0 4.099 4.523 4.692 6.421 1.199 3.838 14.288 57.662 18.962 75.989 5.243 20.556 9.367 23.962 18.03 28.379 6.595 3.362 19.778 2.413 19.778 2.413l39.957-151.08c.001 0-15.324-1.928-25.544 7.082z"/><path id="XMLID_00000081622779024061780520000004097606608754199949_" d="m273.522 331.436s10.082 1.274 16.678-2.088c8.49-4.328 10.44-8.5 10.515-27.288v-91.568l-.012.003v-5.473s-2.499 3.864-8.203 7.053c-3.662 2.048-7.176 3.435-10.948 5.244-6.319 3.032-8.031 6.409-8.031 11.561v102.556z"/><path id="XMLID_5_" d="m400.301 256.263 50.699-75.406s-21.398-3.643-31.993 6.002c-6.779 6.171-14.36 17.268-14.36 17.268l-18.654 26.891c-.904 1.398-2.091 2.92-3.981 2.92-1.891 0-3.077-1.522-3.981-2.92l-18.654-26.891s-7.581-11.097-14.36-17.268c-10.595-9.644-31.993-6.002-31.993-6.002l50.698 75.406-50.565 75.173s22.283 2.813 32.878-6.832c6.779-6.171 13.342-16.205 13.342-16.205l18.654-26.89c.904-1.398 2.091-2.92 3.981-2.92 1.891 0 3.077 1.522 3.981 2.92l18.654 26.89s6.947 10.034 13.726 16.205c10.595 9.644 32.491 6.832 32.491 6.832z"/></g></g></g></g></svg>